<svg xmlns="http://www.w3.org/2000/svg" viewBox="0 0 66 66">
  <defs>
    <style>
      .cls-1 {
        fill: #fff;
      }

      .cls-2 {
        fill: #22282d;
      }
    </style>
  </defs>
  <title>Recurso 15</title>
  <g id="Capa_2" data-name="Capa 2">
    <g id="Capa_1-2" data-name="Capa 1">
      <circle class="cls-1" cx="33" cy="33" r="33"/>
      <path id="users-cog" class="cls-2" d="M57.9,37.4a7.6,7.6,0,0,0,0-3l1.8-1a.6.6,0,0,0,.3-.6,12.3,12.3,0,0,0-2.3-4c-.2-.1-.5-.2-.7,0l-1.8,1a6.4,6.4,0,0,0-2.5-1.5V26.2a.4.4,0,0,0-.4-.4,9,9,0,0,0-4.6,0,.4.4,0,0,0-.4.4v2.1a6.4,6.4,0,0,0-2.5,1.5l-1.8-1a.5.5,0,0,0-.6,0,9.5,9.5,0,0,0-2.3,4,.4.4,0,0,0,.2.6l1.8,1a7.6,7.6,0,0,0,0,3l-1.8,1a.5.5,0,0,0-.2.6,9,9,0,0,0,2.3,4c.1.2.4.2.6.1l1.8-1a7.7,7.7,0,0,0,2.5,1.4v2.1a.7.7,0,0,0,.4.5,11.9,11.9,0,0,0,4.6,0,.7.7,0,0,0,.4-.5V43.5a7.7,7.7,0,0,0,2.5-1.4l1.8,1a.6.6,0,0,0,.7-.1A11.3,11.3,0,0,0,60,39a.7.7,0,0,0-.3-.6ZM50,39.3a3.4,3.4,0,1,1,3.4-3.4A3.4,3.4,0,0,1,50,39.3Zm-27.7-10a4.5,4.5,0,1,0-4.4-4.5A4.5,4.5,0,0,0,22.3,29.3Zm15.5,2.2h.4a13.3,13.3,0,0,1,2.5-4.1,3,3,0,0,1,2-.8,3.2,3.2,0,0,1,1.4.3l.5.4h.2a8.1,8.1,0,0,0,.8-3.4A7.7,7.7,0,0,0,37.8,16a7.6,7.6,0,0,0-7.7,7.7A7.7,7.7,0,0,0,37.8,31.5ZM45.1,45l-.5-.3a3.3,3.3,0,0,1-1.9.7,3.1,3.1,0,0,1-2-.9,14.4,14.4,0,0,1-2.8-4.8c-.7-2.4,1.8-3.5,1.8-3.5v-.6l-.5-.3a1.8,1.8,0,0,1-.7-.5h-.7a10.5,10.5,0,0,1-4.7-1.1h-.6a8,8,0,0,0-8,8v2A3.3,3.3,0,0,0,27.8,47H45.5a3.3,3.3,0,0,1-.4-1.4V45ZM27.6,32.8a4.4,4.4,0,0,0-3.1-1.3H20.1a4.4,4.4,0,0,0-4.4,4.4v2.2a2.2,2.2,0,0,0,2.2,2.3h4.5A10.5,10.5,0,0,1,27.6,32.8Z"/>
    </g>
  </g>
</svg>
