<svg xmlns="http://www.w3.org/2000/svg" viewBox="0 0 66 66">
  <defs>
    <style>
      .cls-1 {
        fill: #fff;
      }

      .cls-2 {
        fill: #22282d;
      }
    </style>
  </defs>
  <title>Recurso 7</title>
  <g id="Capa_2" data-name="Capa 2">
    <g id="Capa_1-2" data-name="Capa 1">
      <circle class="cls-1" cx="33" cy="33" r="33"/>
      <path id="mobile-alt" class="cls-2" d="M41.7,13H23.8A3.8,3.8,0,0,0,20,16.8V50.1a3.8,3.8,0,0,0,3.8,3.8H41.7a3.8,3.8,0,0,0,3.9-3.8V16.8A3.8,3.8,0,0,0,41.7,13ZM32.8,51.4a2.6,2.6,0,0,1,0-5.2,2.6,2.6,0,0,1,0,5.2Zm8.9-8.7a.9.9,0,0,1-.9,1h-16a1,1,0,0,1-1-1V17.8a1.1,1.1,0,0,1,1-1h16a1,1,0,0,1,.9,1Z"/>
    </g>
  </g>
</svg>
